<?xml version="1.0" standalone="no"?>
<!DOCTYPE svg PUBLIC "-//W3C//DTD SVG 20010904//EN"
 "http://www.w3.org/TR/2001/REC-SVG-20010904/DTD/svg10.dtd">
<svg version="1.0" xmlns="http://www.w3.org/2000/svg"
 width="512.000000pt" height="512.000000pt" viewBox="0 0 512.000000 512.000000"
 preserveAspectRatio="xMidYMid meet">
<metadata>
Created by potrace 1.14, written by Peter Selinger 2001-2017
</metadata>
<g transform="translate(0.000000,512.000000) scale(0.100000,-0.100000)"
fill="#000000" stroke="none">
<path d="M2390 5114 c-10 -3 -116 -334 -329 -1029 -229 -745 -320 -1030 -335
-1044 -47 -44 -69 -44 -210 -4 -142 40 -171 59 -180 114 -5 26 58 243 278 954
156 506 280 921 275 923 -14 6 -269 -83 -369 -128 -512 -230 -935 -621 -1207
-1115 -190 -344 -294 -727 -310 -1135 -19 -507 114 -1006 382 -1440 116 -187
320 -436 336 -408 4 7 82 258 174 558 92 299 174 554 181 566 16 24 55 44 87
44 13 0 77 -16 142 -34 130 -38 175 -69 175 -122 0 -15 -91 -321 -202 -682
l-201 -655 23 -19 c46 -37 208 -133 322 -190 372 -186 795 -279 1210 -266 82
3 150 7 152 9 11 12 484 1575 478 1580 -4 4 -491 145 -1082 314 -1141 326
-1120 318 -1120 377 0 12 10 53 22 91 25 77 54 107 123 126 22 6 589 110 1259
231 670 121 1221 222 1224 224 2 3 60 188 129 413 81 264 132 416 145 430 42
45 73 46 204 10 66 -19 130 -39 142 -46 24 -13 52 -60 52 -87 0 -11 -540
-1786 -585 -1920 -2 -7 118 -46 322 -104 180 -52 335 -102 349 -112 17 -14 24
-29 24 -53 0 -24 -205 -717 -255 -863 -9 -26 32 8 144 120 415 413 658 905
743 1503 17 118 17 512 0 630 -84 592 -328 1088 -733 1494 -396 395 -881 638
-1449 726 -100 15 -498 30 -530 19z"/>
<path d="M2685 2480 c-478 -87 -879 -160 -890 -162 -11 -2 331 -104 760 -227
429 -123 785 -225 790 -227 7 -3 203 607 243 759 3 12 -1 17 -14 16 -11 -1
-410 -72 -889 -159z"/>
<path d="M3687 1463 c-10 -18 -418 -1355 -414 -1359 14 -14 370 129 491 198
l59 33 153 500 c85 275 154 503 154 506 0 3 -93 32 -207 64 -115 32 -213 60
-219 62 -7 3 -14 1 -17 -4z"/>
</g>
</svg>
